<?xml version="1.0" encoding="UTF-8"?>
<svg id="Layer_1" data-name="Layer 1" xmlns="http://www.w3.org/2000/svg" viewBox="0 0 486.15 397.09">
  <defs>
    <style>
      .cls-1 {
        fill: #3662e3;
      }
    </style>
  </defs>
  <path class="cls-1" d="M207.29,101.1c.64,1.02,2.34.62,3.38.63,8.38.09,19.47-1.12,22.99,8.45-.24,21.64,2.87,44.3,1.4,65.86-.52,7.59-2.18,14.65-10.37,16.76-3.94,1.01-12.77,1.38-17.07,1.43-12.83.15-26.54-.9-39.52-1.23-22.91-.58-43.49-2.54-61.96,13.84-21.5,19.07-25.12,55.02-7.64,77.95,25.28,33.15,84.35,18.04,120.18,20.42,8.96.6,14.39,2.92,15.76,12.61-1.21,19.74,1.78,40.25.62,59.86-.71,11.94-2.89,17.8-15.76,18.77-3.68.28-7.97-.71-11.4.62-4.31-.05-8.64.07-12.95,0-7.16-.12-15.18-1.09-22.48-1.26-20.36-.47-39.62,1.23-59.65-3.25C22.97,372.46-24.64,270.5,12.94,187.01c21.96-48.81,72.85-84.38,126.8-84.65,17.64-.09,35.37-1.04,52.75-1.26h14.8,0Z"/>
  <path class="cls-1" d="M163.73,212.31c1.09-1.03,2.86-1.9,4.39-2.08,5.89-.71,13.58.27,19.78.04,12.12-.45,26.04-2.5,38.06-.5,7.72,1.29,8.69,8.4,9.11,14.93,1.14,17.76-1.78,36.42-.62,54.31-.09,3.44-2.88,9.09-6.47,9.57-18.4-1.28-37.94,2.03-56.17.61-6.74-.53-10.5-2.48-11.32-9.65-2.01-17.67.72-37.44.58-55.45,0-1.48-.72-2.83-.67-4.27.06-2.07,1.83-6.09,3.33-7.51h0Z"/>
  <path class="cls-1" d="M278.86,0c-.64,1.02-2.34.62-3.38.63-8.38.09-19.47-1.12-22.99,8.45.24,21.64-2.87,44.3-1.4,65.86.52,7.59,2.18,14.65,10.37,16.76,3.94,1.01,12.77,1.38,17.07,1.43,12.83.15,26.54-.9,39.52-1.23,22.91-.58,43.49-2.54,61.96,13.84,21.5,19.07,25.12,55.02,7.64,77.95-25.28,33.15-84.35,18.04-120.18,20.42-8.96.6-14.39,2.92-15.76,12.61,1.21,19.74-1.78,40.25-.62,59.86.71,11.94,2.89,17.8,15.76,18.77,3.68.28,7.97-.71,11.4.62,4.31-.05,8.64.07,12.95,0,7.16-.12,15.18-1.09,22.48-1.26,20.36-.47,39.62,1.23,59.65-3.25,89.85-20.1,137.46-122.06,99.88-205.55C451.25,37.1,400.36,1.53,346.41,1.26c-17.64-.09-35.37-1.04-52.75-1.26h-14.8,0Z"/>
  <path class="cls-1" d="M322.42,111.21c-1.09-1.03-2.86-1.9-4.39-2.08-5.89-.71-13.58.27-19.78.04-12.12-.45-26.04-2.5-38.06-.5-7.72,1.29-8.69,8.4-9.11,14.93-1.14,17.76,1.78,36.42.62,54.31.09,3.44,2.88,9.09,6.47,9.57,18.4-1.28,37.94,2.03,56.17.61,6.74-.53,10.5-2.48,11.32-9.65,2.01-17.67-.72-37.44-.58-55.45,0-1.48.72-2.83.67-4.27-.06-2.07-1.83-6.09-3.33-7.51h0Z"/>
</svg>

